HIERARCHY
ROOT Hips
{
  OFFSET 49.7681 86.4544 5.26841
  CHANNELS 6 Xposition Yposition Zposition Zrotation Xrotation Yrotation
  JOINT spine
  {
    OFFSET 0 6.84637 0.3937
    CHANNELS 3 Zrotation Xrotation Yrotation
    JOINT spine1
    {
      OFFSET 0 9.49621 0
      CHANNELS 3 Zrotation Xrotation Yrotation
      JOINT spine2
      {
        OFFSET 0 9.09909 0
        CHANNELS 3 Zrotation Xrotation Yrotation
        JOINT Neck
        {
          OFFSET 0 23.3612 1.11378
          CHANNELS 3 Zrotation Xrotation Yrotation
          JOINT Head
          {
            OFFSET 0 7.05802 0
            CHANNELS 3 Zrotation Xrotation Yrotation
            End Site
            {
              OFFSET 0 17.0844 -5.63419
            }
          }
        }
        JOINT RightShoulder
        {
          OFFSET -3.83136 9.82631 -0.533491
          CHANNELS 3 Zrotation Xrotation Yrotation
          JOINT RightArm
          {
            OFFSET 0 12.8881 0
            CHANNELS 3 Zrotation Xrotation Yrotation
            JOINT RightArmRoll
            {
              OFFSET 0 6.50617 0
              CHANNELS 3 Zrotation Xrotation Yrotation
              JOINT RightForeArm
              {
                OFFSET 0 18.9501 0
                CHANNELS 3 Zrotation Xrotation Yrotation
                JOINT RightForeArmRoll
                {
                  OFFSET 0 7.30092 0
                  CHANNELS 3 Zrotation Xrotation Yrotation
                  JOINT RightHand
                  {
                    OFFSET 0 14.6514 0
                    CHANNELS 3 Zrotation Xrotation Yrotation
                    End Site
                    {
                      OFFSET 0 0 0
                    }
                  }
                }
              }
            }
          }
        }
        JOINT LeftShoulder
        {
          OFFSET 3.83136 9.82631 -0.533491
          CHANNELS 3 Zrotation Xrotation Yrotation
          JOINT LeftArm
          {
            OFFSET 0 12.8881 0
            CHANNELS 3 Zrotation Xrotation Yrotation
            JOINT LeftArmRoll
            {
              OFFSET 0 6.50617 0
              CHANNELS 3 Zrotation Xrotation Yrotation
              JOINT LeftForeArm
              {
                OFFSET 0 18.9501 0
                CHANNELS 3 Zrotation Xrotation Yrotation
                JOINT LeftForeArmRoll
                {
                  OFFSET 0 7.30092 0
                  CHANNELS 3 Zrotation Xrotation Yrotation
                  JOINT LeftHand
                  {
                    OFFSET 0 14.6514 0
                    CHANNELS 3 Zrotation Xrotation Yrotation
                    End Site
                    {
                      OFFSET 0 0 0
                    }
                  }
                }
              }
            }
          }
        }
      }
    }
  }
  JOINT RightUpLeg
  {
    OFFSET -6.06837 -1.11278 -0.933477
    CHANNELS 3 Zrotation Xrotation Yrotation
    JOINT RightUpLegRoll
    {
      OFFSET 0 17.1796 0
      CHANNELS 3 Zrotation Xrotation Yrotation
      JOINT RightLeg
      {
        OFFSET 0 -21.2743 0
        CHANNELS 3 Zrotation Xrotation Yrotation
        JOINT RightLegRoll
        {
          OFFSET 0 21.3439 0
          CHANNELS 3 Zrotation Xrotation Yrotation
          JOINT RightFoot
          {
            OFFSET 0 17.7652 0
            CHANNELS 3 Zrotation Xrotation Yrotation
            JOINT RightToeBase
            {
              OFFSET 0 14.8508 0
              CHANNELS 3 Zrotation Xrotation Yrotation
              End Site
              {
                OFFSET 0.0062947 7.19213 -0.829005
              }
            }
          }
        }
      }
    }
  }
  JOINT LeftUpLeg
  {
    OFFSET 6.06837 -1.11278 -0.933477
    CHANNELS 3 Zrotation Xrotation Yrotation
    JOINT LeftUpLegRoll
    {
      OFFSET 0 17.1797 0
      CHANNELS 3 Zrotation Xrotation Yrotation
      JOINT LeftLeg
      {
        OFFSET 0 21.2742 0
        CHANNELS 3 Zrotation Xrotation Yrotation
        JOINT LeftLegRoll
        {
          OFFSET 0 21.5412 0
          CHANNELS 3 Zrotation Xrotation Yrotation
          JOINT LeftFoot
          {
            OFFSET 0 17.5679 0
            CHANNELS 3 Zrotation Xrotation Yrotation
            JOINT LeftToeBase
            {
              OFFSET 0 14.8508 0
              CHANNELS 3 Zrotation Xrotation Yrotation
              End Site
              {
                OFFSET -0.0282102 7.19213 -0.829005
              }
            }
          }
        }
      }
    }
  }
}
MOTION
Frames: 5
Frame Time: 0.00208333
50.1472 86.4997 4.59724 0.457169 -3.60375 -0.87439 1.57721 -1.71738 1.29883 3.1676 0.600417 2.43938 3.13972 2.24343 2.38744 -14.9776 8.61143 8.2779 2.99836 10.6961 4.36214 50.0273 -6.47061 -3.55745 101.527 15.6704 27.9338 9.4874e-007 -2.74218e-006 -5.10039e-006 10.8054 0.077842 -0.426632 -1.96197e-007 -1.04146e-005 -3.01426 8.02891 -4.95144 0.697688 -79.7646 -8.60583 5.71845 -84.3519 21.2694 -38.7639 1.59028e-014 -7.95139e-015 -2.54444e-014 -7.87755 0.459349 -0.936046 2.02444e-005 -6.76884e-006 3.00758 -8.02917 -4.95145 -0.697663 -179.956 12.8157 -1.99213 180 7.01468e-015 178.623 175.9 25.0598 -179.515 -4.59476e-006 -1.63367e-006 0.755014 -25.7866 71.8226 23.7814 8.13649 25.2326 -3.48773 -177.995 10.22 0.0477168 4.54188e-006 -4.6773e-006 -0.980802 -1.28145 -25.7433 0.6294 3.03243e-007 -1.62171e-006 -0.571827 24.0217 74.9012 -27.3456 -8.13649 25.2327 3.48773 
50.1481 86.5 4.60303 0.457809 -3.61371 -0.877441 1.57776 -1.71573 1.29906 3.1692 0.603748 2.43973 3.14134 2.24676 2.38776 -14.9796 8.61216 8.27846 3.004 10.6813 4.36243 50.0262 -6.47033 -3.55719 101.519 15.7093 27.92 9.4874e-007 -2.74218e-006 -5.10039e-006 10.8078 0.0778414 -0.425679 -1.96197e-007 -1.04146e-005 -3.01426 8.02891 -4.95144 0.697688 -79.7737 -8.61152 5.72087 -84.3577 21.2842 -38.7601 1.59028e-015 -6.36111e-015 -1.59028e-014 -7.87761 0.461182 -0.935792 2.02444e-005 -6.76884e-006 3.00758 -8.02917 -4.95145 -0.697663 -179.954 12.8043 -1.99466 180 7.01468e-015 178.623 175.904 25.0593 -179.516 -4.59476e-006 -1.63367e-006 0.755045 -25.7855 71.8234 23.7822 8.13649 25.2326 -3.48773 -177.994 10.207 0.044955 4.54188e-006 -4.6773e-006 -0.980804 -1.28197 -25.74 0.629225 3.03243e-007 -1.62171e-006 -0.571827 24.0211 74.9007 -27.346 -8.13649 25.2327 3.48773 
50.1301 86.5117 4.65027 0.458473 -3.62368 -0.880678 1.57829 -1.71408 1.29927 3.1708 0.607045 2.44005 3.14297 2.25006 2.38804 -14.9822 8.61313 8.27927 3.0099 10.6664 4.36281 50.0248 -6.4699 -3.5568 101.512 15.7477 27.9061 9.4874e-007 -2.74218e-006 -5.10039e-006 10.8105 0.0778407 -0.424687 -1.96197e-007 -1.04146e-005 -3.01426 8.02891 -4.95144 0.697688 -79.7828 -8.61733 5.72334 -84.3632 21.2987 -38.7563 3.18055e-015 4.77083e-015 -6.36111e-015 -7.8778 0.462895 -0.935552 2.02444e-005 -6.76884e-006 3.00758 -8.02917 -4.95145 -0.697663 -179.952 12.7927 -1.99719 180 7.01468e-015 178.623 175.909 25.0586 -179.517 -4.59476e-006 -1.63367e-006 0.755072 -25.7843 71.8242 23.783 8.13649 25.2326 -3.48773 -177.993 10.1938 0.0421376 4.54188e-006 -4.6773e-006 -0.980807 -1.28254 -25.7364 0.629021 3.03243e-007 -1.62171e-006 -0.571827 24.0205 74.9002 -27.3463 -8.13649 25.2327 3.48773 
50.1286 86.5155 4.63091 0.459153 -3.63366 -0.884047 1.57882 -1.71245 1.29946 3.17241 0.61032 2.44034 3.1446 2.25333 2.38829 -14.9851 8.61425 8.28026 3.01599 10.6514 4.36325 50.0231 -6.46935 -3.55631 101.505 15.7856 27.8921 9.4874e-007 -2.74218e-006 -5.10039e-006 10.8132 0.07784 -0.423666 -1.96197e-007 -1.04146e-005 -3.01426 8.02891 -4.95144 0.697688 -79.7919 -8.62322 5.72583 -84.3686 21.3128 -38.7524 1.11319e-014 7.95139e-015 -6.36111e-015 -7.87807 0.464524 -0.935324 2.02444e-005 -6.76884e-006 3.00758 -8.02917 -4.95145 -0.697663 -179.951 12.7811 -1.99972 180 7.01468e-015 178.622 175.913 25.0577 -179.519 -4.59476e-006 -1.63367e-006 0.755096 -25.7831 71.825 23.7838 8.13649 25.2326 -3.48773 -177.992 10.1805 0.0392814 4.54188e-006 -4.6773e-006 -0.98081 -1.28316 -25.7327 0.628798 3.03243e-007 -1.62171e-006 -0.571827 24.0199 74.8997 -27.3467 -8.13649 25.2327 3.48773 
50.1456 86.5025 4.58976 0.459842 -3.64363 -0.88749 1.57935 -1.71083 1.29965 3.17402 0.613581 2.44061 3.14623 2.25659 2.38854 -14.9883 8.61546 8.28135 3.02217 10.6365 4.36373 50.0213 -6.46874 -3.55576 101.499 15.8233 27.878 9.4874e-007 -2.74218e-006 -5.10039e-006 10.8161 0.0778392 -0.422629 -1.96197e-007 -1.04146e-005 -3.01426 8.02891 -4.95144 0.697688 -79.801 -8.62916 5.72835 -84.3739 21.3269 -38.7486 3.18055e-015 6.36111e-015 -0 -7.87839 0.466105 -0.935101 2.02444e-005 -6.76884e-006 3.00758 -8.02917 -4.95145 -0.697663 -179.949 12.7694 -2.00225 180 7.01468e-015 178.622 175.917 25.0568 -179.52 -4.59476e-006 -1.63367e-006 0.755118 -25.7818 71.8257 23.7845 8.13649 25.2326 -3.48773 -177.991 10.1671 0.0364031 4.54188e-006 -4.6773e-006 -0.980814 -1.28381 -25.7288 0.628564 3.03243e-007 -1.62171e-006 -0.571827 24.0193 74.8991 -27.347 -8.13649 25.2327 3.48773 
